# xmcd CD database file generated by OrangeCD 6.4
#
# Track frame offsets:
#	150
#	21557
#	39251
#	61143
#	77764
#	90909
#	107359
#	129880
#	151700
#	177272
#
# Disc length: 2636 seconds
#
# Revision: 0
# Processed by: cddbd v1.5.2PL0 Copyright (c) Steve Scherf et al.
# Submitted via: OrangeCD 6.4
#
DISCID=640a4a0a
DTITLE=Chris Antonik - Chris Antonik
DYEAR=2010
DGENRE=
TTITLE0=More to Give
TTITLE1=Roll With It
TTITLE2=The King of Infidelity
TTITLE3=If We Start From Here
TTITLE4=Dhyana
TTITLE5=She's a Burglar
TTITLE6=Almost Free
TTITLE7=Double Trouble
TTITLE8=Reap What You Sow
TTITLE9=Persevering Kind
EXTD=
EXTT0=
EXTT1=
EXTT2=
EXTT3=
EXTT4=
EXTT5=
EXTT6=
EXTT7=
EXTT8=
EXTT9=
PLAYORDER=
